<svg width="200" height="140" viewBox="0 0 200 140" fill="none" xmlns="http://www.w3.org/2000/svg">
<path d="M43.9612 77.9116H47.8282V112.5H43.9612V109.449H43.8644C42.4134 111.336 40.0925 113.174 36.1253 113.174C29.934 113.174 25 108.289 25 100.162C25 92.0357 29.934 87.1501 36.1253 87.1501C40.0925 87.1501 42.4134 88.8916 43.8644 91.0205H43.9612V77.9116ZM43.9612 100.162C43.9612 94.3583 41.1077 90.5363 36.5127 90.5363C31.4334 90.5363 28.8687 95.325 28.8687 100.162C28.8687 104.999 31.4334 109.788 36.5127 109.788C41.1077 109.788 43.9612 105.966 43.9612 100.162Z" fill="#163B36"/>
<path d="M62.2707 90.5364C57.5788 90.5364 56.0293 91.8906 55.7889 95.4704H51.9185C52.1606 90.7301 55.111 87.1503 62.2707 87.1503C66.9626 87.1503 71.1702 88.9886 71.1702 94.9326V106.929C71.1702 108.865 71.5161 109.928 73.9753 109.638V112.348C73.2485 112.617 72.4778 112.748 71.7029 112.733C69.3803 112.733 67.9777 112.106 67.3015 109.396H67.1978C65.65 111.718 62.8933 113.169 58.8309 113.169C53.8485 113.169 50.7027 110.316 50.7027 106.155C50.7027 100.545 54.8619 99.0935 61.2521 97.8847C65.413 97.1099 67.305 96.5773 67.305 94.1111C67.3015 92.1811 66.2362 90.5364 62.2707 90.5364ZM67.3015 102.967V98.8566C66.5752 99.5812 64.2042 100.259 61.5945 100.792C56.804 101.807 54.5731 103.016 54.5731 105.966C54.5731 108.387 56.0241 109.788 59.2183 109.788C63.8185 109.788 67.3015 107.708 67.3015 102.967Z" fill="#163B36"/>
<path d="M93.4848 87.8282H97.3552V111.142C97.3552 117.714 93.196 121.059 86.4236 121.059C79.6513 121.059 75.6356 117.479 75.25 113.276H79.1307C79.615 115.791 81.647 117.678 86.2421 117.678C90.8371 117.678 93.4969 115.694 93.4969 111.106V107.37H93.4001C91.9491 109.498 89.6282 111.239 85.5641 111.239C79.4697 111.239 74.5357 107.322 74.5357 99.1956C74.5357 91.0691 79.4697 87.1503 85.5641 87.1503C89.6282 87.1503 91.9491 88.9886 93.4001 90.8754H93.4969L93.4848 87.8282ZM93.4848 99.1956C93.4848 93.39 90.6313 90.5364 86.0363 90.5364C80.957 90.5364 78.394 94.3584 78.394 99.1956C78.394 104.033 80.957 107.853 86.0363 107.853C90.6382 107.853 93.4848 104.999 93.4848 99.1956V99.1956Z" fill="#163B36"/>
<path d="M121.136 105.726C121.136 110.222 117.025 113.174 111.413 113.174C103.868 113.174 100.385 109.595 100.143 104.275H104.013C104.253 107.032 105.224 109.788 111.413 109.788C115.621 109.788 117.265 107.611 117.265 105.966C117.265 102.388 114.025 102.194 110.495 101.323C106.721 100.404 101.109 99.9686 101.109 94.1647C101.109 90.2943 104.544 87.1503 110.35 87.1503C116.492 87.1503 119.782 90.6333 120.167 94.8894H116.299C115.911 93.0043 114.993 90.5364 110.35 90.5364C106.867 90.5364 104.988 91.939 104.988 93.8742C104.988 96.7761 108.326 97.0183 111.761 97.8415C116.153 98.905 121.136 99.6297 121.136 105.726Z" fill="#163B36"/>
<path d="M134.216 91.2142H129.373V106.063C129.373 108.87 130.93 109.349 134.216 109.112V112.5C133.261 112.699 132.288 112.797 131.314 112.79C128.028 112.79 125.508 111.485 125.508 106.454V91.2176H121.876V87.828H125.508V79.6047H129.378V87.828H134.221L134.216 91.2142Z" fill="#163B36"/>
<path d="M154.782 104.903H158.652C157.393 109.498 153.863 113.174 147.72 113.174C140.222 113.174 135.675 107.901 135.675 100.162C135.675 91.939 140.319 87.1503 147.527 87.1503C155.266 87.1503 159.039 92.4232 159.039 101.177H139.545C139.545 105.629 142.205 109.788 147.575 109.788C152.509 109.788 154.346 106.596 154.782 104.903ZM139.545 97.8H155.169C155.169 93.8327 152.17 90.5364 147.527 90.5364C142.883 90.5364 139.545 93.8223 139.545 97.8Z" fill="#163B36"/>
<path d="M175 87.2951V91.1655H174.903C169.542 90.3008 165.81 94.0674 165.81 99.3404V112.499H161.939V87.8277H165.81V92.7133H165.907C167.212 89.4724 169.193 87.1498 172.727 87.1498C173.488 87.1419 174.247 87.1905 175 87.2951V87.2951Z" fill="#163B36"/>
<path d="M90.8129 70.7596C90.8138 71.0669 90.878 71.3706 91.0015 71.6519C91.125 71.9332 91.3052 72.186 91.5307 72.3945C91.7562 72.603 92.0223 72.7628 92.3124 72.8638C92.6024 72.9649 92.9101 73.005 93.2163 72.9817C104.856 72.1484 115.849 63.9111 119.359 51.045C119.543 50.305 120.099 49.934 120.838 49.934C121.218 49.9492 121.576 50.1134 121.835 50.3908C122.094 50.6682 122.233 51.0366 122.222 51.4161C122.222 54.2849 118.535 61.7823 113.262 66.1332C112.993 66.3593 112.779 66.6432 112.635 66.9637C112.491 67.2842 112.421 67.633 112.431 67.9842C112.436 68.2697 112.498 68.5514 112.612 68.8131C112.727 69.0747 112.891 69.3112 113.097 69.509C113.303 69.7068 113.546 69.8619 113.812 69.9656C114.078 70.0692 114.362 70.1193 114.648 70.113C115.11 70.113 115.849 69.8352 116.773 69.0019C120.461 65.6688 127.489 56.3203 127.489 46.0453C127.489 30.981 115.843 18 99.5893 18C85.0863 18 72.5225 29.8483 72.5225 43.5476C72.5225 52.6183 79.7285 59.4669 89.2424 59.4669C96.5416 59.4669 103.286 54.2849 105.134 47.1564C105.318 46.4164 105.871 46.0453 106.611 46.0453C106.99 46.0606 107.348 46.2246 107.608 46.502C107.867 46.7794 108.007 47.1477 107.997 47.5274C107.997 50.7673 101.899 62.0665 89.5201 62.0665C86.5635 62.0665 82.8694 61.2333 80.2816 59.7511C79.9352 59.5832 79.5578 59.4886 79.1732 59.4734C78.8786 59.4621 78.585 59.5118 78.3106 59.6195C78.0362 59.7273 77.7871 59.8906 77.5789 60.0993C77.3707 60.308 77.2079 60.5576 77.1007 60.8323C76.9936 61.107 76.9444 61.4009 76.9563 61.6955C76.9682 62.0729 77.0763 62.441 77.2703 62.7649C77.4643 63.0889 77.7377 63.3579 78.0647 63.5465C81.4833 65.4995 85.5483 66.5086 89.7045 66.5086C100.051 66.5086 109.474 59.4734 112.246 49.1072C112.431 48.3672 112.986 47.9962 113.724 47.9962C114.103 48.0114 114.461 48.1755 114.72 48.4528C114.98 48.7302 115.12 49.0986 115.11 49.4783C115.11 53.7359 107.535 67.4352 92.9387 68.5462C92.3739 68.5882 91.8446 68.8373 91.4522 69.2458C91.0599 69.6543 90.8322 70.1934 90.8129 70.7596V70.7596Z" fill="#4F43DD"/>
<path d="M105.277 35.3103C107.269 35.2954 109.225 35.8462 110.917 36.8987C111.088 35.9626 111.182 35.014 111.199 34.0625C111.199 29.6682 107.849 25.7318 103.771 25.7318C100.6 25.7318 98.6175 28.3597 98.6175 31.6061C98.6023 33.3598 99.2183 35.0604 100.353 36.3974C101.89 35.6643 103.574 35.2924 105.277 35.3103V35.3103Z" fill="white"/>
<path d="M114.832 51.2294C115.398 49.2937 115.648 47.9505 115.648 47.0782C115.63 46.7014 115.469 46.3458 115.197 46.0848C114.925 45.8239 114.563 45.6776 114.186 45.6763C113.834 45.6829 113.495 45.8066 113.223 46.028C112.95 46.2494 112.759 46.5556 112.68 46.8981C112.526 47.5339 112.196 49.2569 111.871 50.3505C112.006 49.9411 112.129 49.5252 112.24 49.1028C112.424 48.3606 112.98 47.9917 113.717 47.9917C114.096 48.0064 114.454 48.17 114.714 48.4471C114.973 48.7241 115.113 49.0922 115.103 49.4717C115.086 50.0682 114.99 50.6599 114.819 51.2316L114.832 51.2294Z" fill="#352D8E"/>
<path d="M122.684 49.2071C122.666 48.831 122.505 48.4759 122.233 48.2151C121.962 47.9543 121.601 47.8077 121.224 47.8053C120.873 47.8123 120.535 47.9363 120.263 48.1576C119.99 48.379 119.8 48.685 119.721 49.027C119.565 49.678 119.229 51.4271 118.899 52.5186H118.914C119.075 52.0325 119.224 51.5399 119.348 51.0386C119.532 50.2965 120.088 49.9276 120.827 49.9276C121.206 49.9423 121.564 50.1059 121.823 50.383C122.082 50.6601 122.222 51.0282 122.211 51.4075C122.201 51.8682 122.137 52.3262 122.023 52.7725C122.482 51.158 122.684 49.9905 122.684 49.2071Z" fill="#352D8E"/>
<path d="M105.277 35.3103C106.267 35.3083 107.253 35.4405 108.207 35.7031C108.709 35.0194 108.959 34.1838 108.917 33.3369C108.874 32.4901 108.541 31.6837 107.974 31.0535C107.407 30.4234 106.641 30.0078 105.803 29.8769C104.966 29.7459 104.109 29.9075 103.377 30.3345L104.895 32.8344L102.051 31.604C101.666 32.2257 101.473 32.9475 101.496 33.6786C101.519 34.4098 101.758 35.1178 102.181 35.714C103.191 35.4419 104.232 35.3061 105.277 35.3103V35.3103Z" fill="#163B36"/>
<path d="M83.3685 51.3987C84.5665 51.3987 85.5377 50.4271 85.5377 49.2287C85.5377 48.0302 84.5665 47.0587 83.3685 47.0587C82.1705 47.0587 81.1993 48.0302 81.1993 49.2287C81.1993 50.4271 82.1705 51.3987 83.3685 51.3987Z" fill="#352D8E"/>
<path d="M83.3685 42.7186C84.5665 42.7186 85.5377 41.7471 85.5377 40.5486C85.5377 39.3502 84.5665 38.3786 83.3685 38.3786C82.1705 38.3786 81.1993 39.3502 81.1993 40.5486C81.1993 41.7471 82.1705 42.7186 83.3685 42.7186Z" fill="#352D8E"/>
<path d="M79.0299 47.0588C80.2279 47.0588 81.199 46.0872 81.199 44.8888C81.199 43.6903 80.2279 42.7188 79.0299 42.7188C77.8319 42.7188 76.8607 43.6903 76.8607 44.8888C76.8607 46.0872 77.8319 47.0588 79.0299 47.0588Z" fill="#352D8E"/>
<path d="M88.7911 59.4624H89.225C96.5242 59.4624 103.268 54.2804 105.116 47.1519C105.301 46.412 105.854 46.0409 106.593 46.0409C106.973 46.0561 107.331 46.2202 107.59 46.4976C107.85 46.7749 107.99 47.1433 107.98 47.523C107.946 48.2805 107.775 49.0255 107.474 49.7212C107.526 49.6404 107.572 49.5555 107.611 49.4673C108.16 48.2123 108.443 46.8574 108.444 45.4875C108.444 43.3587 106.964 41.9699 104.841 41.9699C101.138 41.9699 100.396 45.2033 98.8343 48.6601C97.214 52.2493 94.2379 56.1315 86.7326 56.1315C78.9345 56.1315 70.9216 50.6695 72.876 39.5634C72.8999 39.4245 72.9194 39.3008 72.9346 39.1858C72.6482 40.6206 72.5029 42.08 72.5007 43.5432C72.5224 52.4837 79.505 59.2541 88.7911 59.4624Z" fill="#352D8E"/>
</svg>
